<svg id="Layer_1" data-name="Layer 1" xmlns="http://www.w3.org/2000/svg" viewBox="0 0 1000.003 256.12"><title>bch-logotype</title><g id="Calque_2_-_copie_2" data-name="Calque 2 - copie 2"><path d="M86.289,148.807v-.191c5.165-2.63,8.372-7.81,8.372-14.299,0-7.15-3.855-12.612-9.131-14.966-3.3-1.502-6.861-1.976-11.665-1.976H71.379v-5.433a1.9157,1.9157,0,0,0-1.922-1.928H63.906a1.925,1.925,0,0,0-1.93,1.928v5.433H55.74v-5.433a1.9224,1.9224,0,0,0-1.924-1.928H48.26a1.9286,1.9286,0,0,0-1.929,1.928v5.433h-5.68a1.2123,1.2123,0,0,0-1.215,1.211v5.296a1.2129,1.2129,0,0,0,1.215,1.211h5.68v50.979l-5.362-.003a1.5591,1.5591,0,0,0-1.552,1.566l.018,4.632a1.5514,1.5514,0,0,0,1.552,1.548h5.344v5.353a1.9335,1.9335,0,0,0,1.929,1.93h5.556a1.928,1.928,0,0,0,1.924-1.93v-5.353h6.236v5.353a1.93,1.93,0,0,0,1.93,1.93h5.551a1.9205,1.9205,0,0,0,1.922-1.93v-5.353h3.709a30.9194,30.9194,0,0,0,9.966-1.234,18.2917,18.2917,0,0,0,12.242-17.69c0-7.523-3.864-14.021-11.007-16.084M73.864,125.093a14.96,14.96,0,0,1,6.867,1.317c2.823,1.603,4.323,4.89,4.323,8.754,0,6.024-3.758,10.161-9.775,10.161H55.739V125.093H73.864Zm7.52,50.066a16.065,16.065,0,0,1-5.928.934l-19.718-.016V153.051l20.478-.009c6.969,0,11.482,4.513,11.482,11.385.001,4.981-2.451,9.125-6.314,10.732" style="fill:#fff"/><path d="M207.819,138.758v-.205a27.5248,27.5248,0,0,0,8.372-19.058c0-7.645-3.855-11.856-9.131-12.166-3.3-.239-6.861.737-11.665,2.744l-2.487,1.04v-5.939a1.3,1.3,0,0,0-1.922-1.319l-5.551,2.277a3.3848,3.3848,0,0,0-1.93,2.918v5.992l-6.236,2.606v-6.027a1.3127,1.3127,0,0,0-1.924-1.349l-5.555,2.279a3.4194,3.4194,0,0,0-1.929,2.95v6.08l-5.68,2.374a2.1757,2.1757,0,0,0-1.215,1.871v5.966a.8214.8214,0,0,0,1.215.844l5.68-2.42v57.061l-5.363,2.563a3.0207,3.0207,0,0,0-1.551,2.509l.018,5.21a1,1,0,0,0,1.552.988l5.344-2.603v5.992a1.2331,1.2331,0,0,0,1.929,1.204l5.555-2.747a3.7713,3.7713,0,0,0,1.924-3.091v-5.938l6.236-3.037v5.905a1.2233,1.2233,0,0,0,1.93,1.173l5.551-2.745a3.7282,3.7282,0,0,0,1.922-3.059v-5.852l3.71-1.807a45.55,45.55,0,0,0,9.966-6.187c6.88-5.847,12.242-15.474,12.242-24.806-.001-8.022-3.864-13.201-11.007-12.191m-12.424-20.269c2.824-1.203,4.978-1.706,6.866-1.495,2.824.524,4.323,3.432,4.323,7.602a16.8094,16.8094,0,0,1-9.774,15.333l-19.54,8.733V126.209Zm7.52,51.015a24.204,24.204,0,0,1-5.928,3.849l-19.718,9.424V157.234l20.477-9.329c6.969-3.17,11.482-.367,11.482,7.029a20.5562,20.5562,0,0,1-6.313,14.57" style="fill:#fab915"/></g><g id="Calque_2_-_copie" data-name="Calque 2 - copie"><g id="Page-1"><g id="Logotype"><g id="logotype-2" data-name="logotype"><path id="model" d="M255.516,54.81a8.26,8.26,0,0,0-.712-1.992.5011.5011,0,0,0-.141-.285,6.7089,6.7089,0,0,0-1.281-1.707.14.14,0,0,0-.143-.143,15.1126,15.1126,0,0,0-1.708-1.422l-.143-.143a.1394.1394,0,0,1-.142-.143,10.5907,10.5907,0,0,0-1.707-.995L131.741.747a10.2511,10.2511,0,0,0-7.683,0L6.403,47.837a6.7613,6.7613,0,0,0-1.708.996.1391.1391,0,0,0-.142.142l-.142.143a15.1946,15.1946,0,0,0-1.708,1.423.1391.1391,0,0,1-.142.142q-.6405.855-1.28,1.708a.499.499,0,0,1-.143.285,10.9807,10.9807,0,0,0-.711,1.991.5213.5213,0,0,1-.143.427A11.0576,11.0576,0,0,0,0,57.369V198.642a10.162,10.162,0,0,0,6.544,9.532l117.798,47.089c.142,0,.285,0,.285.144q.639.2115,1.28.426c.143,0,.284.144.569.144a10.2654,10.2654,0,0,0,3.415,0c.142,0,.285-.144.568-.144a4.5955,4.5955,0,0,0,1.281-.426c.142,0,.284,0,.284-.144l117.798-47.089a10.303,10.303,0,0,0,6.544-9.532V57.37a12.3649,12.3649,0,0,0-.285-2.275C255.657,55.095,255.657,54.952,255.516,54.81ZM128.613,93.933,38.273,57.655l90.34-36.279,90.34,36.279Zm105.988,97.74L137.86,230.51V111.433l96.741-38.839Z" style="fill:#f7b40b"/><g id="type-_outlines_" data-name="type-(outlines)"><path id="EXPLORER" d="M374.166,219.13V100.762h53.066v13.089H389.531v36.706h34.143v12.802H389.531v42.538h40.404v13.09h-55.77v.143Zm100.868-74.976,20.345-43.392h15.364l-27.03,54.915c2.418,5.123,4.979,10.387,7.541,15.936,2.703,5.547,5.263,11.097,7.824,16.501,2.561,5.551,4.979,10.956,7.256,16.077,2.273,5.264,4.267,10.103,5.974,14.654h-15.08c-1.28-3.414-2.702-7.114-4.41-11.239s-3.415-8.108-5.406-12.377-3.984-8.536-6.118-12.947c-2.134-4.409-4.125-8.678-6.259-12.661-1.992,4.125-4.126,8.395-6.26,12.661-2.135,4.411-4.269,8.679-6.117,12.947-1.992,4.269-3.699,8.393-5.406,12.377s-2.988,7.825-4.126,11.239H438.188c1.564-4.411,3.556-9.247,5.833-14.368,2.277-5.123,4.695-10.385,7.113-15.792,2.562-5.407,4.979-10.813,7.541-16.361s4.979-10.67,7.398-15.649l-27.174-55.912h15.649Zm52.213-41.685a95.9953,95.9953,0,0,1,23.332-2.845,56.3685,56.3685,0,0,1,16.076,2.134,34.1965,34.1965,0,0,1,12.518,6.686,29.9123,29.9123,0,0,1,7.968,11.666,47.3462,47.3462,0,0,1,2.846,17.214,48.9675,48.9675,0,0,1-2.846,17.499,29.9177,29.9177,0,0,1-8.251,11.809,32.5763,32.5763,0,0,1-12.662,6.546,64.8705,64.8705,0,0,1-16.503,1.99h-7.113v43.961H527.247Zm15.365,59.326h6.118a40.3235,40.3235,0,0,0,10.526-1.279,20.273,20.273,0,0,0,7.969-4.124,18.9176,18.9176,0,0,0,4.978-7.541,33.0793,33.0793,0,0,0,1.708-11.382,33.9336,33.9336,0,0,0-1.708-11.524,18.9562,18.9562,0,0,0-4.695-7.541,16.4549,16.4549,0,0,0-7.254-3.983,32.7074,32.7074,0,0,0-9.39-1.138,50.1083,50.1083,0,0,0-8.252.57v47.942Zm117.655,44.246V219.13H607.485V100.762h15.366V205.897h37.416Zm89.345-45.952a124.0723,124.0723,0,0,1-2.418,25.181,58.8111,58.8111,0,0,1-7.683,19.491,36.7092,36.7092,0,0,1-13.09,12.52c-5.263,2.986-11.523,4.409-18.636,4.409s-13.373-1.423-18.637-4.409a36.6764,36.6764,0,0,1-13.09-12.52,62.12,62.12,0,0,1-7.824-19.491,114.25,114.25,0,0,1-2.561-25.181,116.5161,116.5161,0,0,1,2.561-25.324,57.7074,57.7074,0,0,1,7.824-19.491,37.3474,37.3474,0,0,1,63.453,0,62.0747,62.0747,0,0,1,7.683,19.491A126.5589,126.5589,0,0,1,749.612,160.089Zm-16.503,0a120.1258,120.1258,0,0,0-1.424-19.635,53.5459,53.5459,0,0,0-4.408-15.221,25.5374,25.5374,0,0,0-7.969-9.959,19.3625,19.3625,0,0,0-11.808-3.556,19.0793,19.0793,0,0,0-11.809,3.556,26.853,26.853,0,0,0-7.966,9.959,60.0876,60.0876,0,0,0-4.554,15.221,120.1272,120.1272,0,0,0-1.422,19.635,120.123,120.123,0,0,0,1.422,19.634,53.3411,53.3411,0,0,0,4.554,15.221,24.0418,24.0418,0,0,0,7.966,9.817,20.3517,20.3517,0,0,0,11.809,3.555,19.0694,19.0694,0,0,0,11.808-3.555,27.8066,27.8066,0,0,0,7.969-9.817,53.5138,53.5138,0,0,0,4.408-15.221A120.1213,120.1213,0,0,0,733.109,160.089Zm37.843-57.62a94.5745,94.5745,0,0,1,23.046-2.845,62.1738,62.1738,0,0,1,16.077,1.991,31.6593,31.6593,0,0,1,12.233,6.544,29.9354,29.9354,0,0,1,7.969,11.381,45.25,45.25,0,0,1,2.845,16.93c0,8.251-1.566,14.797-4.695,19.92a29.9531,29.9531,0,0,1-12.661,11.521c1.424,2.277,3.129,5.406,5.264,9.247,2.134,3.984,4.269,8.253,6.544,12.947,2.276,4.696,4.411,9.532,6.544,14.654,2.135,5.122,3.843,9.816,5.407,14.369H824.159c-1.278-3.414-2.844-7.254-4.693-11.666-1.851-4.27-3.842-8.679-5.833-12.946-1.992-4.269-4.126-8.395-6.118-12.236-1.992-3.981-3.841-7.256-5.407-9.958-1.847.284-3.697.428-5.69.569-1.99.141-3.84.141-5.832.141h-4.268v46.097h-15.364V102.469Zm14.939,57.903h6.543c7.826,0,13.941-1.848,18.069-5.405,4.267-3.558,6.258-9.816,6.258-18.495a36.9,36.9,0,0,0-1.564-11.239,15.0557,15.0557,0,0,0-4.553-7.113,20.1821,20.1821,0,0,0-7.112-3.842,31.7168,31.7168,0,0,0-9.247-1.138,50.0894,50.0894,0,0,0-8.252.569v46.663Zm70.137,58.758V100.762h53.065v13.089h-37.7v36.706h34.143v12.802H871.393v42.538h40.404v13.09h-55.77v.143ZM931.43,102.469a94.5882,94.5882,0,0,1,23.047-2.845,62.16,62.16,0,0,1,16.076,1.991,31.6718,31.6718,0,0,1,12.236,6.544,29.9535,29.9535,0,0,1,7.967,11.381,45.2691,45.2691,0,0,1,2.846,16.93c0,8.251-1.564,14.797-4.696,19.92a29.95,29.95,0,0,1-12.662,11.521c1.424,2.277,3.131,5.406,5.265,9.247,2.133,3.984,4.269,8.253,6.543,12.947,2.277,4.696,4.411,9.532,6.544,14.654,2.136,5.122,3.843,9.816,5.407,14.369H984.355c-1.281-3.414-2.846-7.254-4.695-11.666-1.851-4.27-3.841-8.679-5.833-12.946-1.99-4.269-4.126-8.395-6.119-12.236-1.989-3.981-3.84-7.256-5.404-9.958-1.851.284-3.7.428-5.69.569-1.993.141-3.843.141-5.833.141h-4.269v46.097h-15.08V102.469Zm14.938,57.903h6.544c7.825,0,13.941-1.848,18.069-5.405,4.124-3.558,6.258-9.816,6.258-18.495a36.9313,36.9313,0,0,0-1.564-11.239,15.05,15.05,0,0,0-4.554-7.113,20.1688,20.1688,0,0,0-7.111-3.842,31.7324,31.7324,0,0,0-9.248-1.138,50.1129,50.1129,0,0,0-8.252.569v46.663Z" style="fill:#f7b40b"/></g></g></g></g></g><path d="M384.4485,32.3655h13.2622a16.5119,16.5119,0,0,1,5.6089.7593,8.2845,8.2845,0,0,1,5.5508,8.2383,11.2555,11.2555,0,0,1-6.9526,10.458v.1172c3.2134,1.1685,5.083,4.2065,5.083,8.1211a13.1465,13.1465,0,0,1-8.7056,12.5029,16.4284,16.4284,0,0,1-6.0762,1.0518H376.3855ZM392.4524,68.59a8.6322,8.6322,0,0,0,3.8564-.8184,8.5182,8.5182,0,0,0,4.7324-7.8291c0-3.33-2.1616-5.4336-5.9009-5.4336H385.909L383.1629,68.59Zm3.0386-18.8716a7.51,7.51,0,0,0,7.4785-7.7124c0-2.8047-1.7529-4.6157-5.1416-4.6157H389.239l-2.4536,12.3281Z" style="fill:#f7b40b"/><path d="M421.6057,32.3655h5.7256l-8.0044,41.2485h-5.7842Z" style="fill:#f7b40b"/><path d="M446.2019,37.39H432.0628l.9346-5.0244H467.06l-.9346,5.0244H451.9275l-7.0112,36.2241h-5.7842Z" style="fill:#f7b40b"/><path d="M490.0208,31.6643c10.4,0,14.8984,5.4917,14.8984,5.4917l-3.4473,3.9731a16.44,16.44,0,0,0-11.2759-4.1479c-10.4585,0-18.6382,9.1143-18.6382,19.1636,0,7.3032,4.6157,12.8535,12.5615,12.8535,7.7124,0,13.73-5.3169,13.73-5.3169l2.5122,4.5576a27.118,27.118,0,0,1-16.5347,6.0762c-11.3345,0-18.229-7.4785-18.229-17.8784C465.5984,42.8821,477.1087,31.6643,490.0208,31.6643Z" style="fill:#f7b40b"/><path d="M532.0276,31.6643c11.043,0,18.4043,7.3032,18.4043,17.5278,0,13.6133-12.2109,25.123-24.6562,25.123-11.042,0-18.3452-7.5371-18.3452-17.9951C507.43,42.94,519.4661,31.6643,532.0276,31.6643Zm-6.1934,37.334c9.2314,0,18.6377-8.7637,18.6377-19.5142,0-7.3618-5.1406-12.5029-12.5029-12.5029-9.4062,0-18.6377,8.53-18.6377,19.105C513.3313,63.6814,518.4729,68.9983,525.8343,68.9983Z" style="fill:#f7b40b"/><path d="M562.4661,32.3655h5.7256l-8.0049,41.2485h-5.7842Z" style="fill:#f7b40b"/><path d="M579.4671,32.3655h5.3164l13.2041,26.8174a53.8234,53.8234,0,0,1,2.2207,5.9595h.1162s.293-3.6807.76-5.9595l5.2-26.8174h5.7842l-8.0625,41.2485h-5.3174L585.4846,46.8548a54.4586,54.4586,0,0,1-2.2783-6.0176h-.1172s-.292,3.6807-.76,6.0176L577.13,73.6141h-5.7266Z" style="fill:#f7b40b"/><path d="M631.7561,63.5061A48.937,48.937,0,0,1,643.85,30.6712h5.1416c-7.9453,9.9321-12.1523,20.9746-12.1523,32.9521a45.0511,45.0511,0,0,0,2.6875,15.541h-4.7324A42.696,42.696,0,0,1,631.7561,63.5061Z" style="fill:#f7b40b"/><path d="M655.7688,32.3655h13.2627a16.509,16.509,0,0,1,5.6084.7593,8.2845,8.2845,0,0,1,5.5508,8.2383,11.2552,11.2552,0,0,1-6.9531,10.458v.1172c3.2139,1.1685,5.083,4.2065,5.083,8.1211a13.1468,13.1468,0,0,1-8.7051,12.5029,16.4249,16.4249,0,0,1-6.0762,1.0518h-15.834ZM663.7727,68.59a8.6336,8.6336,0,0,0,3.8564-.8184,8.5174,8.5174,0,0,0,4.7324-7.8291c0-3.33-2.1621-5.4336-5.9014-5.4336h-9.2314L654.4837,68.59Zm3.0381-18.8716a7.51,7.51,0,0,0,7.4785-7.7124c0-2.8047-1.7529-4.6157-5.1416-4.6157H660.56l-2.4541,12.3281Z" style="fill:#f7b40b"/><path d="M710.22,31.6643c10.3994,0,14.8984,5.4917,14.8984,5.4917l-3.4473,3.9731a16.4408,16.4408,0,0,0-11.2764-4.1479c-10.458,0-18.6377,9.1143-18.6377,19.1636,0,7.3032,4.6162,12.8535,12.5615,12.8535,7.7129,0,13.73-5.3169,13.73-5.3169l2.5117,4.5576a27.1141,27.1141,0,0,1-16.5342,6.0762c-11.335,0-18.2285-7.4785-18.2285-17.8784C685.7981,42.8821,697.3079,31.6643,710.22,31.6643Z" style="fill:#f7b40b"/><path d="M735.1663,32.3655h5.7256l-3.5645,18.17H758.77l3.5645-18.17H768.06l-8.0625,41.2485h-5.7256l3.5049-18.1118H736.3343l-3.5049,18.1118h-5.7266Z" style="fill:#f7b40b"/><path d="M765.8968,79.1643c7.9463-9.9907,12.1523-21.0332,12.1523-32.9521a45.0511,45.0511,0,0,0-2.6875-15.541h4.7324a42.2173,42.2173,0,0,1,3.0381,15.6582,49.1513,49.1513,0,0,1-12.0937,32.835Z" style="fill:#f7b40b"/><path d="M811.8177,32.3655H825.08a16.509,16.509,0,0,1,5.6084.7593,8.2845,8.2845,0,0,1,5.5508,8.2383,11.2552,11.2552,0,0,1-6.9531,10.458v.1172c3.2139,1.1685,5.083,4.2065,5.083,8.1211a13.1468,13.1468,0,0,1-8.7051,12.5029,16.4249,16.4249,0,0,1-6.0762,1.0518h-15.834ZM819.8216,68.59a8.6336,8.6336,0,0,0,3.8564-.8184,8.5174,8.5174,0,0,0,4.7324-7.8291c0-3.33-2.1621-5.4336-5.9014-5.4336h-9.2314L810.5325,68.59ZM822.86,49.7181a7.51,7.51,0,0,0,7.4785-7.7124c0-2.8047-1.7529-4.6157-5.1416-4.6157h-8.5879l-2.4541,12.3281Z" style="fill:#f7b40b"/><path d="M848.9749,32.3655h5.7842L847.69,68.59h18.4619L865.1,73.6141H840.9114Z" style="fill:#f7b40b"/><path d="M895.4241,31.6643c11.042,0,18.4033,7.3032,18.4033,17.5278,0,13.6133-12.2109,25.123-24.6553,25.123-11.043,0-18.3457-7.5371-18.3457-17.9951C870.8264,42.94,882.8616,31.6643,895.4241,31.6643Zm-6.1934,37.334c9.2314,0,18.6377-8.7637,18.6377-19.5142,0-7.3618-5.1416-12.5029-12.5029-12.5029-9.4072,0-18.6377,8.53-18.6377,19.105C876.7278,63.6814,881.8684,68.9983,889.2307,68.9983Z" style="fill:#f7b40b"/><path d="M943.1555,31.6643c10.3994,0,14.8984,5.4917,14.8984,5.4917l-3.4473,3.9731A16.4408,16.4408,0,0,0,943.33,36.9812c-10.458,0-18.6377,9.1143-18.6377,19.1636,0,7.3032,4.6162,12.8535,12.5615,12.8535,7.7129,0,13.73-5.3169,13.73-5.3169l2.5117,4.5576a27.1141,27.1141,0,0,1-16.5342,6.0762c-11.335,0-18.2285-7.4785-18.2285-17.8784C918.7337,42.8821,930.2434,31.6643,943.1555,31.6643Z" style="fill:#f7b40b"/><path d="M968.1028,32.3655h5.7256L970.44,49.7181h5.9014l14.0215-17.3525h6.7188l-16.125,19.8062v.1167l8.53,21.3257h-6.1348l-7.3613-18.93h-6.5439l-3.6807,18.93h-5.7266Z" style="fill:#f7b40b"/></svg>