<?xml version="1.0" encoding="utf-8"?>
<!-- Svg Vector Icons : http://www.onlinewebfonts.com/icon -->
<!DOCTYPE svg PUBLIC "-//W3C//DTD SVG 1.1//EN" "http://www.w3.org/Graphics/SVG/1.1/DTD/svg11.dtd">
<svg version="1.1" xmlns="http://www.w3.org/2000/svg" xmlns:xlink="http://www.w3.org/1999/xlink" x="0px" y="0px" viewBox="0 0 1000 1000" enable-background="new 0 0 1000 1000" xml:space="preserve">
<metadata> Svg Vector Icons : http://www.onlinewebfonts.com/icon </metadata>
<g><g><g><path d="M887.9,520.5L563.1,195.7C536,168.5,492,153,453.7,157.3L332,170.8l18-123.3c2.6-17.9-9.8-34.6-27.7-37.2c-17.9-2.5-34.6,9.8-37.2,27.7l-20.4,140.2l-58.9,6.5c-45.5,5.1-89,48.6-94.1,94.2L84,527c-4.3,38.2,11.2,82.3,38.4,109.5l324.8,324.7c38.4,38.3,100.8,38.3,139.1,0l301.6-301.5C926.3,621.3,926.3,558.8,887.9,520.5z M268.5,378.9c10.6,1.5,20.9-2.2,28-9.3c4.8-4.8,8.2-11.1,9.3-18.4l8.1-55.9c2,1.5,4,2.9,5.8,4.7c25.6,25.6,25.6,67.2,0,92.8c-25.6,25.6-67.2,25.7-92.8,0c-25.6-25.6-25.6-67.2,0-92.8c6.5-6.5,14.1-11.4,22.2-14.5l-8.2,56.2C238.1,359.7,250.5,376.3,268.5,378.9z M545.2,712.3l-33.2,33.2l-68.2-321.6l33.4-33.5L545.2,712.3z M534.1,554.5c-0.5-18.5,6.8-35.3,21.8-50.4c14.5-14.5,30-21.5,46.6-21.1c16.6,0.5,32.6,8.5,48.3,24c16,16.1,24.3,33.3,24.9,51.8c0.5,18.4-6.7,35.2-21.6,50.1c-13.9,13.9-29.4,20.7-46.7,20.3c-17.2-0.3-33.4-7.9-48.3-22.7C542.9,590.3,534.5,573,534.1,554.5z M455.6,581.6c0.5,18.5-6.8,35.1-21.7,50c-13.9,13.9-29.4,20.6-46.7,20.3c-17.3-0.3-33.3-7.9-48.2-22.8c-16.2-16.2-24.6-33.5-25.1-52.1c-0.5-18.5,6.8-35.3,21.8-50.3c14.4-14.4,30-21.3,46.7-20.9c16.7,0.5,32.9,8.5,48.5,24.1C446.9,545.9,455.1,563.2,455.6,581.6z M864.7,636.4L563.2,938c-25.5,25.6-67.2,25.6-92.7,0L145.7,613.3c-19.9-19.9-32.1-54.7-29-82.7l27.5-247.9c1.8-15.5,9.6-30.8,22.1-43.3c12.5-12.5,27.8-20.3,43.2-22l50.3-5.6l-4.9,33.6L213,250c-17.9,2-34.2,18.3-36.2,36.3l-27.5,248c-2,17.9,6.8,43,19.5,55.8l324.8,324.7c12.8,12.8,33.6,12.8,46.3,0l301.6-301.5c12.8-12.8,12.8-33.6,0-46.4L516.8,242.1c-12.8-12.8-37.9-21.6-55.8-19.6l-138.7,15.4l4.9-33.5L457.4,190c28-3.1,62.7,9.1,82.6,29l324.7,324.8C890.3,569.2,890.3,610.9,864.7,636.4z"/><path d="M631.7,583.4c12.9-12.9,10.2-28.4-7.9-46.5c-8.4-8.4-16.7-13.2-24.7-14.4c-8.1-1.2-14.9,1.1-20.5,6.7c-13.1,13.1-10.5,28.9,7.8,47.3C603.8,594,618.9,596.2,631.7,583.4z"/><path d="M358.8,551.4c-13.2,13.2-10.7,29.1,7.8,47.4c17.4,17.4,32.4,19.8,45,7.2c12.9-12.8,10.2-28.3-7.9-46.5C385.9,541.9,371,539.1,358.8,551.4z"/></g></g><g></g><g></g><g></g><g></g><g></g><g></g><g></g><g></g><g></g><g></g><g></g><g></g><g></g><g></g><g></g></g>
</svg>